<?xml version="1.0" encoding="UTF-8"?>
<svg width="700pt" height="700pt" version="1.1" viewBox="0 0 700 700" xmlns="http://www.w3.org/2000/svg">
 <path d="m350.99 5.6016c-3.2188 0.046876-5.793 2.6953-5.75 5.918v43.938c-0.046875 1.5781 0.54688 3.1094 1.6445 4.2461 1.1016 1.1328 2.6133 1.7734 4.1914 1.7734 1.582 0 3.0938-0.64062 4.1953-1.7734 1.0977-1.1367 1.6914-2.668 1.6406-4.2461v-43.938c0.023438-1.5781-0.59375-3.0977-1.707-4.2109-1.1172-1.1172-2.6367-1.7305-4.2148-1.707zm-57.285 7.5664h0.003906c-1.8555-0.042969-3.6172 0.79688-4.75 2.2617-1.1367 1.4688-1.5078 3.3828-1 5.168l11.379 42.445v-0.003907c0.35937 1.5391 1.3281 2.8672 2.6875 3.6758 1.3555 0.8125 2.9805 1.0391 4.5078 0.62891s2.8203-1.4219 3.5898-2.8008c0.76953-1.3828 0.94531-3.0156 0.48438-4.5273l-11.379-42.441h0.003907c-0.64453-2.543-2.9023-4.3477-5.5234-4.4062zm-53.941 22.195c-2.0586 0.078125-3.9258 1.2383-4.9062 3.0508-0.98438 1.8086-0.94141 4.0039 0.11719 5.7773l21.98 38.047c0.75 1.3867 2.0273 2.4102 3.543 2.8398 1.5195 0.42578 3.1445 0.22656 4.5117-0.5625 1.3633-0.78906 2.3516-2.0938 2.7383-3.625 0.38672-1.5273 0.14062-3.1484-0.68359-4.4883l-21.98-38.055v-0.003906c-1.0742-1.9141-3.1289-3.0625-5.3203-2.9805zm195.3 17.145c-11.906 0.0625-24.305 1.4844-37.074 4.4414l13.73 51.211c2.6016-1.8398 5.5625-3.2656 8.8008-4.1328 3.668-0.98047 7.375-1.1641 10.93-0.66406 10.66 1.5039 19.961 9.2031 22.91 20.207 3.9336 14.672-4.8594 29.898-19.531 33.832-3.2383 0.86719-6.5156 1.1172-9.6914 0.82031l13.879 51.793 50.09-13.422 0.003906-0.003906c2.2969-1.0898 5.0312-0.56641 6.7656 1.2852 1.7344 1.8555 2.0703 4.6211 0.83203 6.8398-0.03125 0.0625-0.066407 0.125-0.10547 0.1875-2.0469 3.543-2.7461 7.8164-1.5977 12.102 2.2969 8.5742 10.965 13.57 19.543 11.273s13.582-10.957 11.281-19.531c-1.1484-4.2852-3.8867-7.6367-7.4297-9.6797h0.003906c-0.050781-0.027344-0.10156-0.054687-0.14844-0.082031-0.050781-0.027344-0.10156-0.058594-0.14844-0.085937-2.0742-1.3242-3.0898-3.8086-2.5469-6.207 0.54297-2.3984 2.5312-4.1992 4.9688-4.5039l47.84-12.812c-1.293-12.844-3.5312-24.621-7.4453-35.875-1.3633 0.51953-2.7695 0.97656-4.2109 1.3633-22.977 6.1562-46.742-7.5625-52.898-30.531-3.4492-12.863-0.66016-25.973 6.4961-36.102-21.062-13.965-46.73-21.824-75.25-21.711zm110.21 15.105c-2.6016 0.042969-5.2461 0.38672-7.8828 1.0938-16.883 4.5234-26.812 21.715-22.289 38.59 4.5234 16.875 21.723 26.805 38.605 22.281 16.883-4.5234 26.805-21.715 22.281-38.59-3.3906-12.656-13.91-21.41-26.082-23.086-1.5234-0.21094-3.0703-0.30859-4.6328-0.28906zm-351.3 3.0391c-2.3789 0-4.5156 1.4453-5.4102 3.6484-0.89062 2.2031-0.35547 4.7266 1.3516 6.3828l31.074 31.066h-0.003906c1.0977 1.0938 2.582 1.7109 4.1289 1.7109 1.5508 0 3.0352-0.61719 4.1328-1.7109 1.0938-1.0938 1.707-2.582 1.707-4.1289 0-1.5508-0.61328-3.0352-1.7109-4.1289l-31.082-31.062c-1.0977-1.1367-2.6094-1.7773-4.1875-1.7773zm363.6 9.043c2.0938 0.035157 4.0039 1.1914 5.0117 3.0234 1.0078 1.8359 0.95703 4.0664-0.13281 5.8516l-14.57 24.68h0.003906c-1.6172 2.7383-5.1289 3.6797-7.8984 2.1172l-11.566-6.5352v0.003907c-1.375-0.74609-2.3945-2.0156-2.8281-3.5195-0.43359-1.5039-0.24219-3.1211 0.52734-4.4844s2.0547-2.3633 3.5664-2.7695c1.5117-0.40625 3.125-0.19141 4.4766 0.60156l6.5781 3.7148 11.652-19.746c1.0586-1.8516 3.0469-2.9805 5.1797-2.9375zm-212.38 12.75c-93.336 3.1641-147.84 78.695-133.94 158.6l39.824-0.011719c-1.1016-2.9883-1.707-6.2109-1.707-9.5586 0-15.188 12.434-27.629 27.625-27.629 15.191 0 27.633 12.438 27.633 27.629 0 3.3516-0.60547 6.5703-1.707 9.5586h42.355c-0.25781-22.887 0.21094-55.012 0.28516-64.172v-0.003906c0.003906-0.074219 0.007812-0.14844 0.015625-0.22266v-0.085937c0.13672-3.1016 2.6797-5.5508 5.7812-5.5781 1.7734-0.011719 3.4531 0.78125 4.5703 2.1562 2.8555 2.6719 6.6406 4.3086 10.887 4.3086 8.8789 0 15.957-7.0703 15.957-15.945s-7.0742-15.945-15.957-15.945c-4.4414 0-8.3906 1.7812-11.285 4.6719-0.070313 0.070312-0.14062 0.14062-0.21484 0.21094-0.035156 0.027344-0.070312 0.058594-0.10547 0.085938-0.11719 0.10156-0.23828 0.19922-0.36328 0.28906-0.15625 0.11328-0.31641 0.21875-0.48047 0.31641h-0.011719c-1.8125 1.0586-4.0547 1.0664-5.8711 0.015624-1.8164-1.0508-2.9336-2.9961-2.918-5.0977 0-12.945-0.12891-46.766-0.37109-63.613zm-186.3 24.219h0.003907c-2.6953-0.10156-5.1094 1.6562-5.8398 4.2539-0.73047 2.5977 0.41797 5.3594 2.7734 6.6758l38.062 21.973v-0.003906c2.793 1.5898 6.3438 0.625 7.9492-2.1562 1.6016-2.7852 0.66016-6.3398-2.1133-7.9648l-38.066-21.961c-0.83984-0.5-1.7891-0.78125-2.7656-0.81641zm-22.559 53.562 0.003906-0.003906c-2.918 0.070313-5.3398 2.2852-5.6641 5.1875-0.32812 2.9023 1.5391 5.5977 4.3711 6.3125l42.461 11.379c3.0977 0.78516 6.2539-1.0625 7.0781-4.1523 0.82812-3.0859-0.98438-6.2656-4.0625-7.1289l-42.449-11.371c-0.5625-0.16406-1.1484-0.23828-1.7344-0.22656zm140.66 55.301c-8.8789 0-15.945 7.0703-15.945 15.945 0 4.4375 1.7773 8.3789 4.6719 11.273 0.058594 0.0625 0.11719 0.125 0.17188 0.19141 0.11328 0.125 0.22266 0.25781 0.32422 0.39062 0.015624 0.023437 0.027343 0.042969 0.042968 0.066406 0.089844 0.12109 0.17188 0.24609 0.25391 0.37109 0.027344 0.042969 0.054688 0.085937 0.085938 0.12891 0.066406 0.11719 0.12891 0.23438 0.1875 0.35156 0.03125 0.058594 0.058594 0.11328 0.085938 0.17188 0.0625 0.12891 0.11719 0.26172 0.16797 0.39453 0.023438 0.050781 0.042969 0.097656 0.066406 0.14844 0.054688 0.14844 0.10156 0.29687 0.14844 0.44922 0.003906 0.03125 0.011719 0.058594 0.019531 0.085938 0.035157 0.14062 0.0625 0.28516 0.085938 0.42969 0.007812 0.054688 0.011719 0.10938 0.019531 0.16797 0.019531 0.13281 0.03125 0.26562 0.042969 0.39844 0.003906 0.054687 0.007812 0.11328 0.011719 0.16797 0.003906 0.10156 0.003906 0.20312 0 0.30469 0 0.10547-0.003907 0.21484-0.011719 0.32031-0.003907 0.035156-0.007813 0.070313-0.011719 0.10547-0.015625 0.16406-0.039062 0.32422-0.066406 0.48828-0.03125 0.1875-0.074219 0.375-0.125 0.55859v0.011719c-0.046875 0.18359-0.10547 0.36328-0.17188 0.53906-0.011719 0.027344-0.027344 0.054688-0.039063 0.082031-0.13672 0.33594-0.30078 0.65234-0.49609 0.95703-0.10156 0.16406-0.21484 0.32031-0.33594 0.47656-1.1211 1.4062-2.8242 2.2227-4.6211 2.207h-48.414c0.10547 0.42187 0.19141 0.85156 0.30078 1.2578 11.645 43.453 35.238 70.418 56.648 93.387 10.703 11.484 20.879 21.906 28.598 33.047 6.5742 9.4844 10.637 19.934 11.914 31.375h34.648c-0.011719-23.047-0.0625-46.219-0.0625-69.297-2.9961 1.1094-6.2266 1.7188-9.5859 1.7188-15.188 0-27.629-12.438-27.629-27.625s12.438-27.625 27.629-27.625c3.3633 0 6.5977 0.60938 9.5938 1.7227l0.0625-37.957h-52.836v-0.003906c-0.058594 0.003906-0.11328 0.003906-0.16797 0-0.20703-0.007813-0.41406-0.03125-0.62109-0.0625h-0.019531c-0.17188-0.019532-0.34375-0.046876-0.51562-0.085938-0.019531-0.003906-0.042969-0.007812-0.0625-0.011719-0.14453-0.035156-0.28516-0.078125-0.42578-0.125-0.050781-0.015625-0.097657-0.027343-0.14844-0.042969-0.13672-0.050781-0.26953-0.10937-0.40234-0.17187-0.042969-0.019532-0.085938-0.039063-0.12891-0.0625-0.15234-0.074219-0.30469-0.15625-0.45312-0.24219-0.011718-0.007812-0.027344-0.011719-0.042968-0.019531-0.13672-0.082031-0.26953-0.17188-0.40234-0.26562-0.027344-0.027344-0.054688-0.054688-0.082032-0.085938-0.11719-0.089844-0.23047-0.17969-0.33594-0.27734-0.039063-0.027343-0.074219-0.058593-0.10938-0.085937-0.10547-0.10156-0.21094-0.20703-0.3125-0.31641-0.035156-0.027344-0.070312-0.058594-0.10547-0.085938-0.082031-0.09375-0.16016-0.19141-0.23828-0.29297-0.050781-0.054687-0.10156-0.11328-0.14844-0.17187-0.058593-0.085938-0.11328-0.17578-0.16797-0.26563-0.050782-0.074218-0.10156-0.14844-0.14844-0.22266-0.050781-0.089844-0.10156-0.17578-0.14844-0.26562-0.046875-0.089843-0.085938-0.17578-0.12891-0.26562-0.035156-0.09375-0.070312-0.19141-0.10547-0.28516-0.027344-0.082031-0.058594-0.16016-0.082032-0.23828-0.039062-0.11328-0.074218-0.22656-0.10937-0.33984-0.019532-0.078125-0.042969-0.15625-0.0625-0.23438-0.015626-0.089844-0.03125-0.17969-0.042969-0.27344-0.015625-0.10156-0.03125-0.20703-0.039063-0.30859-0.007812-0.070313-0.015625-0.14062-0.019531-0.21094-0.011719-0.12891-0.019531-0.25391-0.019531-0.38281-0.003906-0.0625-0.003906-0.125 0-0.1875 0-0.12891 0.003906-0.25781 0.011718-0.38672 0.003907-0.070312 0.011719-0.14062 0.019532-0.21094 0.011718-0.12891 0.027344-0.25391 0.042968-0.38281 0.007813-0.042969 0.015626-0.082031 0.023438-0.125 0.027344-0.15234 0.0625-0.30078 0.10547-0.44531 0.007812-0.023438 0.011719-0.042969 0.019531-0.0625 0.050781-0.16406 0.10547-0.32422 0.17188-0.48047 0.019531-0.042969 0.039063-0.085938 0.0625-0.125 0.058594-0.13672 0.12109-0.27344 0.19141-0.40625 0.011719-0.027344 0.027344-0.054688 0.039063-0.082031 0.26953-0.49219 0.60547-0.94531 1-1.3398 2.8906-2.8906 4.668-6.832 4.668-11.27 0-8.875-7.0742-15.945-15.957-15.945zm-104 2.1914 0.003906-0.003906h-0.0625-43.953c-1.5859-0.058594-3.125 0.53125-4.2695 1.6328-1.1406 1.0977-1.7852 2.6172-1.7852 4.2031 0 1.5859 0.64453 3.1055 1.7852 4.2031 1.1445 1.1016 2.6836 1.6914 4.2695 1.6328h43.953c1.5781 0.054687 3.1133-0.52734 4.2539-1.6211s1.7891-2.6055 1.7969-4.1836-0.625-3.0938-1.7539-4.2031c-1.125-1.1055-2.6562-1.707-4.2344-1.6641zm183.92 34.996-0.085937 48.469 0.003906-0.003906c0.003907 0.10156 0.003907 0.20312 0 0.30469v0.015625c-0.066406 2.5156-1.7422 4.7031-4.1484 5.4297-2.4102 0.72656-5.0156-0.17188-6.4648-2.2305-2.8242-2.5312-6.5078-4.0742-10.629-4.0742-8.8789 0-15.949 7.0703-15.949 15.945s7.0664 15.945 15.949 15.945c4.1133 0 7.793-1.5352 10.613-4.0625v0.003906c1.457-2.0938 4.1016-2.9961 6.5312-2.2383 2.4336 0.75781 4.0898 3.0078 4.1016 5.5547v0.24219c0 26.492 0.085937 53.211 0.10547 79.758h34.477c1.2734-11.406 5.3047-21.777 11.852-31.145 7.6914-11.008 17.816-21.266 28.488-32.633 21.336-22.734 44.922-49.672 56.812-94.031 0.10547-0.375 0.16797-0.87109 0.26563-1.2578h-37.742c1.1055 2.9883 1.7148 6.2148 1.7148 9.5703 0 15.188-12.438 27.625-27.629 27.625-15.188 0-27.633-12.438-27.633-27.625 0-3.3555 0.60938-6.582 1.7109-9.5703zm-177.87 11.078 0.003906-0.003907c-0.52344 0-1.0469 0.074219-1.5508 0.21484l-42.461 11.367c-1.5117 0.39062-2.8008 1.3672-3.5859 2.7148-0.78906 1.3438-1.0039 2.9492-0.59766 4.457 0.40234 1.5039 1.3906 2.7891 2.7461 3.5586 1.3555 0.77344 2.9609 0.97266 4.4648 0.55469l42.449-11.367v-0.003906c2.8633-0.72266 4.7305-3.4688 4.3594-6.3984-0.375-2.9258-2.875-5.1172-5.8242-5.0977zm18.016 42.934 0.003906-0.003906c-1.1172-0.039062-2.2188 0.24609-3.1797 0.81641l-38.062 21.973c-1.3945 0.74609-2.4219 2.0234-2.8555 3.543-0.43359 1.5195-0.23047 3.1523 0.55859 4.5195 0.78906 1.3672 2.0977 2.3555 3.6328 2.7422 1.5312 0.38672 3.1523 0.13672 4.4961-0.69531l38.066-21.973c2.2852-1.2812 3.4375-3.9258 2.8164-6.4688-0.61719-2.5469-2.8555-4.3672-5.4727-4.457zm27.934 36.867 0.007812-0.003906c-1.5195 0.042968-2.9609 0.67578-4.0195 1.7656l-31.074 31.062h0.003906c-1.1523 1.082-1.8164 2.5859-1.8438 4.1641-0.023437 1.582 0.58984 3.1055 1.707 4.2227 1.1172 1.1172 2.6406 1.7344 4.2188 1.7109 1.582-0.023437 3.082-0.6875 4.1641-1.8398l31.082-31.062c1.7305-1.6797 2.25-4.2461 1.3125-6.4648-0.94141-2.2188-3.1445-3.6328-5.5508-3.5586zm79.301 79.867c-5.4922 0-9.7305 4.2344-9.7305 9.7227 0 5.4844 4.2422 9.7227 9.7305 9.7227h93.391c5.4922 0 9.7227-4.2383 9.7227-9.7227 0-5.4883-4.2305-9.7227-9.7227-9.7227zm1.8359 31.117 0.53906 45.84c0.28906 24.488 19.629 43.984 44.285 43.984s43.973-19.488 44.285-43.984l0.58594-45.84zm22.883 39.281h43.941l0.007813-0.003906c1.5547-0.015625 3.0547 0.59375 4.1602 1.6914 1.1055 1.0977 1.7305 2.5898 1.7305 4.1484 0 1.5547-0.625 3.0508-1.7305 4.1445-1.1055 1.0977-2.6055 1.707-4.1602 1.6914h-43.945c-1.5547 0.015625-3.0547-0.59375-4.1602-1.6914-1.1055-1.0938-1.7305-2.5898-1.7305-4.1445 0-1.5586 0.625-3.0508 1.7305-4.1484s2.6055-1.707 4.1602-1.6914z"/>
</svg>
